<svg id="Layer_1" data-name="Layer 1" xmlns="http://www.w3.org/2000/svg" viewBox="0 0 542.3 525.96"><defs><style>.cls-1{fill:#fff;}.cls-2{fill:#0caa8d;}</style></defs><path class="cls-1" d="M45.74,520.44v-8.37c-4.12,6.79-10.3,9.95-18.55,9.95C15.31,522,7,513.16,7,500.07V460.79H22.71v36.86c0,7.51,3.39,11.15,10.06,11.15,8,0,12.24-5.7,12.24-13.58V460.79H60.65v59.65Z"/><path class="cls-1" d="M67.57,520.44V460.79H82.36v7.15c5.21-8,11.27-8.73,17.7-8.73h2.06v16.13a26.72,26.72,0,0,0-4.36-.36c-9.7,0-14.43,4.84-14.43,14.42v31Z"/><path class="cls-1" d="M106.49,520.44V439H122v29.58c4.48-6.3,10.3-9.34,17.7-9.34,15.39,0,24.48,12.73,24.48,30.8,0,20.12-10.78,32-25.82,32-7.27,0-12.85-2.79-16.61-8.86l-.12,7.28Zm41.7-29.34c0-12.25-4.36-18.43-13.58-18.43-8.73,0-13.21,6.43-13.21,19.4,0,10.06,5.82,17.09,13.34,17.09C142.62,509.16,148.19,501.77,148.19,491.1Z"/><path class="cls-1" d="M207.36,520.44a23,23,0,0,1-1-5.34c-3.76,4.13-10.06,6.92-18.06,6.92-13.58,0-19.89-6.67-19.89-16.37,0-17.22,11.52-19.16,27.4-21.34,7.88-1.09,10.06-2.67,10.06-6.79,0-3.88-3.87-6.18-10.06-6.18-7.15,0-10.06,3.51-10.79,8.85H170.38c.25-12.37,7-21,26.19-21,18.91,0,25.46,8.49,25.46,23.53v37.7Zm-1.09-29.22c-1.58,1.58-4.37,2.43-10.18,3.52-9,1.69-11.89,4.24-11.89,9.33,0,4.49,2.67,6.67,7.64,6.67,8.12,0,14.19-5.94,14.31-13Z"/><path class="cls-1" d="M267.13,520.44V484.31c0-9.21-2.67-11.76-10.18-11.76-8.24,0-12.24,4.61-12.24,13.7v34.19H228.94V460.79h15v8.73c3.63-6.67,9.7-10.31,19.27-10.31,11.4,0,19.77,6.91,19.77,19.89v41.34Z"/><path class="cls-2" d="M351.14,490.61c0-18.91,11.76-31.4,30.67-31.4,18.67,0,30.31,12.37,30.31,31.4S400.36,522,381.81,522C362.53,522,351.14,509.16,351.14,490.61Zm45.1,0c0-12.12-4.85-18.06-14.43-18.06s-14.43,5.94-14.43,18.06,4.85,18.19,14.43,18.19S396.24,502.74,396.24,490.61Z"/><path class="cls-2" d="M456,520.44V484.31c0-9.21-2.67-11.76-10.18-11.76-8.25,0-12.25,4.61-12.25,13.7v34.19H417.82V460.79h15v8.73c3.64-6.67,9.7-10.31,19.28-10.31,11.4,0,19.76,6.91,19.76,19.89v41.34Z"/><path class="cls-2" d="M493.23,494.74c.49,9,5.58,14.79,13.34,14.79,5.09,0,9.58-2.55,10.67-6.67h16.24C529.85,515.1,520,522,507.3,522c-19.89,0-29.83-10.92-29.83-32.5,0-18.42,10.55-30.31,28.86-30.31s28,11.89,28,35.53Zm24.86-9.95c-.24-8.85-6.07-13.09-12.25-13.09s-11.52,4.85-12.12,13.09Z"/><polygon class="cls-1" points="316.68 507.59 307.99 507.59 338.42 473.52 338.42 460.79 289.93 460.79 289.93 473.28 318.3 473.28 287.87 508.32 287.87 520.44 316.68 520.44 316.68 507.59"/><rect class="cls-2" x="329.43" y="507.53" width="16.85" height="12.91"/><path class="cls-2" d="M354.74,296.54a73.62,73.62,0,0,1,6.81-31l0-.27,128-255.63H287.61c-22.09,0-39.92,18.22-39.92,40.31l1.55,212.39v.77c0,18.61-7,34.88-20.54,48.45-13.95,13.56-30.23,20.54-49.61,20.54-19,0-35.65-7-49.22-20.54s-20.54-29.84-20.54-49.22V65.47L71,82.52V261.58c0,29.46,10.46,54.65,31.78,75.58s46.9,31.39,76.74,31.39,55.81-10.46,76.74-31.39C277.53,316.23,288,291,288,261.58V48H428.3L269.78,363.9H376l22.2.06A74.19,74.19,0,0,1,354.74,296.54Z"/><circle class="cls-2" cx="428.86" cy="296.54" r="64.25"/></svg>