<svg id="Layer_1" data-name="Layer 1" xmlns="http://www.w3.org/2000/svg" viewBox="0 0 400 400"><defs><style>.cls-1{fill:#0caa8d;}</style></defs><path class="cls-1" d="M400,28.52H207c-21.11,0-38.15,17.41-38.15,38.52l1.48,203v.74c0,17.78-6.67,33.33-19.63,46.3-13.33,13-28.89,19.63-47.41,19.63-18.14,0-34.07-6.67-47-19.63s-19.63-28.52-19.63-47V81.85L0,98.15V269.26c0,28.15,10,52.22,30.37,72.22s44.82,30,73.33,30,53.34-10,73.34-30c20.37-20,30.37-44.07,30.37-72.22V65.19H341.48L190,367H330l16.3-36.67H248.89Z"/></svg>