<svg id="Layer_1" data-name="Layer 1" xmlns="http://www.w3.org/2000/svg" viewBox="0 0 543.32 532.09"><defs><style>.cls-1{fill:#010101;}.cls-2{fill:#0caa8d;}</style></defs><path class="cls-1" d="M48.8,520.44v-8.37C44.68,518.86,38.5,522,30.26,522,18.38,522,10,513.16,10,500.07V460.79H25.77v36.86c0,7.51,3.39,11.15,10.06,11.15,8,0,12.25-5.7,12.25-13.58V460.79H63.72v59.65Z"/><path class="cls-1" d="M70.63,520.44V460.79H85.42v7.15c5.22-8,11.28-8.73,17.7-8.73h2.07v16.13a26.84,26.84,0,0,0-4.37-.36c-9.7,0-14.43,4.84-14.43,14.42v31Z"/><path class="cls-1" d="M109.55,520.44V439h15.52v29.58c4.49-6.3,10.3-9.34,17.7-9.34,15.4,0,24.49,12.73,24.49,30.8,0,20.12-10.79,32-25.82,32-7.28,0-12.85-2.79-16.61-8.86l-.12,7.28Zm41.71-29.34c0-12.25-4.37-18.43-13.58-18.43-8.73,0-13.22,6.43-13.22,19.4,0,10.06,5.82,17.09,13.34,17.09C145.68,509.16,151.26,501.77,151.26,491.1Z"/><path class="cls-1" d="M210.42,520.44a23.5,23.5,0,0,1-1-5.34c-3.76,4.13-10.06,6.92-18.06,6.92-13.58,0-19.88-6.67-19.88-16.37,0-17.22,11.51-19.16,27.39-21.34,7.89-1.09,10.07-2.67,10.07-6.79,0-3.88-3.88-6.18-10.07-6.18-7.15,0-10.06,3.51-10.78,8.85H173.45c.24-12.37,7-21,26.18-21,18.92,0,25.46,8.49,25.46,23.53v37.7Zm-1.09-29.22c-1.57,1.58-4.36,2.43-10.18,3.52-9,1.69-11.88,4.24-11.88,9.33,0,4.49,2.66,6.67,7.63,6.67,8.13,0,14.19-5.94,14.31-13Z"/><path class="cls-1" d="M270.19,520.44V484.31c0-9.21-2.66-11.76-10.18-11.76-8.24,0-12.24,4.61-12.24,13.7v34.19H232V460.79h15v8.73c3.64-6.67,9.7-10.31,19.28-10.31,11.39,0,19.76,6.91,19.76,19.89v41.34Z"/><path class="cls-2" d="M354.2,490.61c0-18.91,11.76-31.4,30.67-31.4,18.67,0,30.31,12.37,30.31,31.4S403.42,522,384.87,522C365.6,522,354.2,509.16,354.2,490.61Zm45.1,0c0-12.12-4.85-18.06-14.43-18.06s-14.42,5.94-14.42,18.06,4.85,18.19,14.42,18.19S399.3,502.74,399.3,490.61Z"/><path class="cls-2" d="M459.07,520.44V484.31c0-9.21-2.67-11.76-10.18-11.76-8.24,0-12.24,4.61-12.24,13.7v34.19H420.88V460.79h15v8.73c3.63-6.67,9.7-10.31,19.27-10.31,11.4,0,19.77,6.91,19.77,19.89v41.34Z"/><path class="cls-2" d="M496.3,494.74c.48,9,5.57,14.79,13.33,14.79,5.09,0,9.58-2.55,10.67-6.67h16.25C532.91,515.1,523.09,522,510.36,522c-19.88,0-29.82-10.92-29.82-32.5,0-18.42,10.54-30.31,28.85-30.31s28,11.89,28,35.53Zm24.85-9.95c-.24-8.85-6.06-13.09-12.24-13.09s-11.52,4.85-12.13,13.09Z"/><polygon class="cls-1" points="319.75 507.59 311.06 507.59 341.49 473.52 341.49 460.79 292.99 460.79 292.99 473.28 321.36 473.28 290.93 508.32 290.93 520.44 319.75 520.44 319.75 507.59"/><rect class="cls-2" x="332.5" y="507.53" width="16.85" height="12.91"/><path class="cls-2" d="M357.81,296.54a73.62,73.62,0,0,1,6.81-31v-.27L492.6,9.66H290.68c-22.1,0-39.92,18.22-39.92,40.31l1.55,212.39v.77c0,18.61-7,34.88-20.54,48.45-14,13.56-30.24,20.54-49.61,20.54-19,0-35.66-7-49.23-20.54s-20.54-29.84-20.54-49.22V65.47L74,82.52V261.58c0,29.46,10.47,54.65,31.79,75.58s46.89,31.39,76.73,31.39,55.81-10.46,76.74-31.39c21.32-20.93,31.78-46.12,31.78-75.58V48h140.3L272.85,363.9H379l22.2.06A74.19,74.19,0,0,1,357.81,296.54Z"/><circle class="cls-2" cx="431.92" cy="296.54" r="64.25"/></svg>